<svg width="56" height="56" viewBox="0 0 56 56" fill="none" xmlns="http://www.w3.org/2000/svg">
<rect width="56" height="56" rx="16" fill="#F3E8FF"/>
<path d="M31.5 16.3335H21C20.3811 16.3335 19.7876 16.5793 19.35 17.0169C18.9125 17.4545 18.6666 18.048 18.6666 18.6668V37.3335C18.6666 37.9523 18.9125 38.5458 19.35 38.9834C19.7876 39.421 20.3811 39.6668 21 39.6668H35C35.6188 39.6668 36.2123 39.421 36.6499 38.9834C37.0875 38.5458 37.3333 37.9523 37.3333 37.3335V22.1668L31.5 16.3335Z" stroke="#9333EA" stroke-width="2.33333" stroke-linecap="round" stroke-linejoin="round"/>
<path d="M30.3334 16.3335V21.0002C30.3334 21.619 30.5792 22.2125 31.0168 22.6501C31.4544 23.0877 32.0479 23.3335 32.6667 23.3335H37.3334" stroke="#9333EA" stroke-width="2.33333" stroke-linecap="round" stroke-linejoin="round"/>
<path d="M25.6667 24.5H23.3334" stroke="#9333EA" stroke-width="2.33333" stroke-linecap="round" stroke-linejoin="round"/>
<path d="M32.6667 29.1665H23.3334" stroke="#9333EA" stroke-width="2.33333" stroke-linecap="round" stroke-linejoin="round"/>
<path d="M32.6667 33.8335H23.3334" stroke="#9333EA" stroke-width="2.33333" stroke-linecap="round" stroke-linejoin="round"/>
</svg>
