<svg width="56" height="56" viewBox="0 0 56 56" fill="none" xmlns="http://www.w3.org/2000/svg">
<rect width="56" height="56" rx="16" fill="#0DA2E7" fill-opacity="0.1"/>
<path d="M35 16.3335H21C19.7113 16.3335 18.6667 17.3782 18.6667 18.6668V37.3335C18.6667 38.6222 19.7113 39.6668 21 39.6668H35C36.2887 39.6668 37.3333 38.6222 37.3333 37.3335V18.6668C37.3333 17.3782 36.2887 16.3335 35 16.3335Z" stroke="#0DA2E7" stroke-width="2.33333" stroke-linecap="round" stroke-linejoin="round"/>
<path d="M24.5 39.6667V35H31.5V39.6667" stroke="#0DA2E7" stroke-width="2.33333" stroke-linecap="round" stroke-linejoin="round"/>
<path d="M23.3333 21H23.345" stroke="#0DA2E7" stroke-width="2.33333" stroke-linecap="round" stroke-linejoin="round"/>
<path d="M32.6667 21H32.6783" stroke="#0DA2E7" stroke-width="2.33333" stroke-linecap="round" stroke-linejoin="round"/>
<path d="M28 21H28.0117" stroke="#0DA2E7" stroke-width="2.33333" stroke-linecap="round" stroke-linejoin="round"/>
<path d="M28 25.6665H28.0117" stroke="#0DA2E7" stroke-width="2.33333" stroke-linecap="round" stroke-linejoin="round"/>
<path d="M28 30.3335H28.0117" stroke="#0DA2E7" stroke-width="2.33333" stroke-linecap="round" stroke-linejoin="round"/>
<path d="M32.6667 25.6665H32.6783" stroke="#0DA2E7" stroke-width="2.33333" stroke-linecap="round" stroke-linejoin="round"/>
<path d="M32.6667 30.3335H32.6783" stroke="#0DA2E7" stroke-width="2.33333" stroke-linecap="round" stroke-linejoin="round"/>
<path d="M23.3333 25.6665H23.345" stroke="#0DA2E7" stroke-width="2.33333" stroke-linecap="round" stroke-linejoin="round"/>
<path d="M23.3333 30.3335H23.345" stroke="#0DA2E7" stroke-width="2.33333" stroke-linecap="round" stroke-linejoin="round"/>
</svg>
