<svg width="56" height="56" viewBox="0 0 56 56" fill="none" xmlns="http://www.w3.org/2000/svg">
<rect width="56" height="56" rx="16" fill="#FFEDD5"/>
<path d="M26.25 37.9168L37.9167 26.2502C38.4618 25.7159 38.8956 25.0789 39.1931 24.3759C39.4905 23.673 39.6456 22.918 39.6495 22.1548C39.6533 21.3915 39.5059 20.635 39.2155 19.9291C38.9252 19.2231 38.4978 18.5818 37.9581 18.042C37.4184 17.5023 36.777 17.0749 36.0711 16.7846C35.3652 16.4943 34.6087 16.3468 33.8454 16.3507C33.0821 16.3545 32.3272 16.5096 31.6242 16.8071C30.9213 17.1045 30.2842 17.5383 29.75 18.0835L18.0833 29.7502C17.5382 30.2844 17.1043 30.9214 16.8069 31.6244C16.5095 32.3274 16.3543 33.0823 16.3505 33.8456C16.3466 34.6089 16.4941 35.3653 16.7844 36.0713C17.0748 36.7772 17.5021 37.4186 18.0419 37.9583C18.5816 38.498 19.223 38.9254 19.9289 39.2157C20.6348 39.506 21.3913 39.6535 22.1546 39.6497C22.9179 39.6458 23.6728 39.4907 24.3758 39.1933C25.0787 38.8958 25.7157 38.462 26.25 37.9168Z" stroke="#EA580C" stroke-width="2.33333" stroke-linecap="round" stroke-linejoin="round"/>
<path d="M23.9167 23.9165L32.0834 32.0832" stroke="#EA580C" stroke-width="2.33333" stroke-linecap="round" stroke-linejoin="round"/>
</svg>
