<svg width="56" height="56" viewBox="0 0 56 56" fill="none" xmlns="http://www.w3.org/2000/svg">
<rect width="56" height="56" rx="16" fill="#E7F9ED"/>
<path d="M36.1667 30.3333C37.905 28.63 39.6667 26.5883 39.6667 23.9167C39.6667 22.2149 38.9906 20.5828 37.7873 19.3794C36.5839 18.176 34.9518 17.5 33.25 17.5C31.1967 17.5 29.75 18.0833 28 19.8333C26.25 18.0833 24.8033 17.5 22.75 17.5C21.0482 17.5 19.4161 18.176 18.2127 19.3794C17.0094 20.5828 16.3333 22.2149 16.3333 23.9167C16.3333 26.6 18.0833 28.6417 19.8333 30.3333L28 38.5L36.1667 30.3333Z" stroke="#22C35D" stroke-width="2.33333" stroke-linecap="round" stroke-linejoin="round"/>
<path d="M17.7567 27.9998H25.0833L25.6667 26.8332L28 32.0832L30.3333 23.9165L32.0833 27.9998H38.2317" stroke="#22C35D" stroke-width="2.33333" stroke-linecap="round" stroke-linejoin="round"/>
</svg>
