<svg width="56" height="56" viewBox="0 0 56 56" fill="none" xmlns="http://www.w3.org/2000/svg">
<rect width="56" height="56" rx="16" fill="#0DA2E7" fill-opacity="0.1"/>
<path d="M38 32.9201V35.9201C38.0011 36.1986 37.9441 36.4743 37.8325 36.7294C37.7209 36.9846 37.5573 37.2137 37.3521 37.402C37.1468 37.5902 36.9046 37.7336 36.6407 37.8228C36.3769 37.912 36.0974 37.9452 35.82 37.9201C32.7428 37.5857 29.787 36.5342 27.19 34.8501C24.7738 33.3148 22.7253 31.2663 21.19 28.8501C19.5 26.2413 18.4482 23.2711 18.12 20.1801C18.095 19.9036 18.1279 19.6249 18.2165 19.3617C18.3051 19.0986 18.4476 18.8568 18.6348 18.6517C18.822 18.4466 19.0498 18.2828 19.3038 18.1706C19.5578 18.0584 19.8323 18.0004 20.11 18.0001H23.11C23.5953 17.9953 24.0658 18.1672 24.4338 18.4836C24.8017 18.8001 25.0421 19.2395 25.11 19.7201C25.2366 20.6802 25.4714 21.6228 25.81 22.5301C25.9445 22.888 25.9737 23.277 25.8939 23.651C25.8141 24.0249 25.6289 24.3682 25.36 24.6401L24.09 25.9101C25.5135 28.4136 27.5864 30.4865 30.09 31.9101L31.36 30.6401C31.6319 30.3712 31.9751 30.1859 32.3491 30.1062C32.7231 30.0264 33.1121 30.0556 33.47 30.1901C34.3773 30.5286 35.3199 30.7635 36.28 30.8901C36.7658 30.9586 37.2094 31.2033 37.5265 31.5776C37.8437 31.9519 38.0122 32.4297 38 32.9201Z" stroke="#0DA2E7" stroke-width="2" stroke-linecap="round" stroke-linejoin="round"/>
</svg>
