<svg width="64" height="64" viewBox="0 0 64 64" fill="none" xmlns="http://www.w3.org/2000/svg">
<rect width="64" height="64" rx="16" fill="#FCE7F3"/>
<path d="M28 32H28.0133" stroke="#DB2777" stroke-width="2.66667" stroke-linecap="round" stroke-linejoin="round"/>
<path d="M36 32H36.0133" stroke="#DB2777" stroke-width="2.66667" stroke-linecap="round" stroke-linejoin="round"/>
<path d="M29.3334 37.3335C30 37.7335 30.9334 38.0002 32 38.0002C33.0667 38.0002 34 37.7335 34.6667 37.3335" stroke="#DB2777" stroke-width="2.66667" stroke-linecap="round" stroke-linejoin="round"/>
<path d="M41.3333 24.4C42.5413 25.9142 43.3647 27.6984 43.7333 29.6C44.1841 29.8184 44.5644 30.1593 44.8304 30.5838C45.0965 31.0082 45.2376 31.499 45.2376 32C45.2376 32.501 45.0965 32.9918 44.8304 33.4162C44.5644 33.8407 44.1841 34.1816 43.7333 34.4C43.1577 37.0846 41.6788 39.4907 39.5435 41.2167C37.4082 42.9427 34.7456 43.8843 32 43.8843C29.2543 43.8843 26.5917 42.9427 24.4564 41.2167C22.3211 39.4907 20.8422 37.0846 20.2666 34.4C19.8158 34.1816 19.4355 33.8407 19.1695 33.4162C18.9034 32.9918 18.7623 32.501 18.7623 32C18.7623 31.499 18.9034 31.0082 19.1695 30.5838C19.4355 30.1593 19.8158 29.8184 20.2666 29.6C20.819 26.894 22.2878 24.4614 24.4253 22.7125C26.5628 20.9636 29.2382 20.0056 32 20C34.6666 20 36.6666 21.4667 36.6666 23.3333C36.6666 25.2 35.4666 26.6667 34 26.6667C32.9333 26.6667 32 26.1333 32 25.3333" stroke="#DB2777" stroke-width="2.66667" stroke-linecap="round" stroke-linejoin="round"/>
</svg>
