<svg width="64" height="64" viewBox="0 0 64 64" fill="none" xmlns="http://www.w3.org/2000/svg">
<rect width="64" height="64" rx="16" fill="#0DA2E7" fill-opacity="0.1"/>
<path d="M30.6667 18.6665V21.3332" stroke="#0DA2E7" stroke-width="2.66667" stroke-linecap="round" stroke-linejoin="round"/>
<path d="M22.6667 18.6665V21.3332" stroke="#0DA2E7" stroke-width="2.66667" stroke-linecap="round" stroke-linejoin="round"/>
<path d="M22.6667 20H21.3333C20.6261 20 19.9478 20.281 19.4477 20.781C18.9476 21.2811 18.6667 21.9594 18.6667 22.6667V28C18.6667 30.1217 19.5095 32.1566 21.0098 33.6569C22.5101 35.1571 24.5449 36 26.6667 36C28.7884 36 30.8232 35.1571 32.3235 33.6569C33.8238 32.1566 34.6667 30.1217 34.6667 28V22.6667C34.6667 21.9594 34.3857 21.2811 33.8856 20.781C33.3855 20.281 32.7072 20 32 20H30.6667" stroke="#0DA2E7" stroke-width="2.66667" stroke-linecap="round" stroke-linejoin="round"/>
<path d="M26.6667 36C26.6667 38.1217 27.5095 40.1566 29.0098 41.6569C30.5101 43.1571 32.5449 44 34.6667 44C36.7884 44 38.8232 43.1571 40.3235 41.6569C41.8238 40.1566 42.6667 38.1217 42.6667 36V32" stroke="#0DA2E7" stroke-width="2.66667" stroke-linecap="round" stroke-linejoin="round"/>
<path d="M42.6667 31.9998C44.1394 31.9998 45.3333 30.8059 45.3333 29.3332C45.3333 27.8604 44.1394 26.6665 42.6667 26.6665C41.1939 26.6665 40 27.8604 40 29.3332C40 30.8059 41.1939 31.9998 42.6667 31.9998Z" stroke="#0DA2E7" stroke-width="2.66667" stroke-linecap="round" stroke-linejoin="round"/>
</svg>
