<svg width="64" height="64" viewBox="0 0 64 64" fill="none" xmlns="http://www.w3.org/2000/svg">
<rect width="64" height="64" rx="16" fill="#F3E8FF"/>
<path d="M32 22.6666C32.0016 22.1333 31.8965 21.6051 31.6909 21.113C31.4854 20.6209 31.1835 20.1749 30.803 19.8012C30.4226 19.4275 29.9712 19.1336 29.4755 18.9369C28.9799 18.7402 28.4498 18.6445 27.9167 18.6557C27.3835 18.6668 26.8579 18.7844 26.3708 19.0016C25.8838 19.2188 25.4451 19.5312 25.0805 19.9204C24.716 20.3097 24.4329 20.7679 24.2481 21.2681C24.0632 21.7683 23.9802 22.3005 24.004 22.8332C23.2203 23.0348 22.4927 23.412 21.8763 23.9363C21.2599 24.4607 20.771 25.1184 20.4465 25.8597C20.1219 26.601 19.9703 27.4064 20.0032 28.215C20.036 29.0235 20.2524 29.814 20.636 30.5266C19.9616 31.0745 19.4312 31.7789 19.0911 32.5785C18.751 33.3781 18.6114 34.2487 18.6845 35.1146C18.7576 35.9804 19.0411 36.8153 19.5104 37.5466C19.9797 38.2779 20.6206 38.8834 21.3773 39.3106C21.2839 40.0336 21.3397 40.768 21.5412 41.4686C21.7427 42.1692 22.0857 42.821 22.549 43.3838C23.0124 43.9467 23.5861 44.4085 24.235 44.7409C24.8838 45.0733 25.5938 45.2691 26.3213 45.3164C27.0488 45.3636 27.7782 45.2611 28.4645 45.0154C29.1508 44.7696 29.7795 44.3858 30.3117 43.8876C30.8439 43.3894 31.2682 42.7873 31.5586 42.1187C31.849 41.45 31.9992 40.7289 32 39.9999V22.6666Z" stroke="#9333EA" stroke-width="2.66667" stroke-linecap="round" stroke-linejoin="round"/>
<path d="M32 22.6666C31.9984 22.1333 32.1035 21.6051 32.3091 21.113C32.5147 20.6209 32.8165 20.1749 33.197 19.8012C33.5774 19.4275 34.0288 19.1336 34.5245 18.9369C35.0202 18.7402 35.5502 18.6445 36.0834 18.6557C36.6165 18.6668 37.1421 18.7844 37.6292 19.0016C38.1162 19.2188 38.5549 19.5312 38.9195 19.9204C39.284 20.3097 39.5671 20.7679 39.752 21.2681C39.9368 21.7683 40.0198 22.3005 39.996 22.8332C40.7797 23.0348 41.5073 23.412 42.1237 23.9363C42.7401 24.4607 43.229 25.1184 43.5536 25.8597C43.8781 26.601 44.0297 27.4064 43.9968 28.215C43.964 29.0235 43.7476 29.814 43.364 30.5266C44.0384 31.0745 44.5688 31.7789 44.9089 32.5785C45.249 33.3781 45.3886 34.2487 45.3155 35.1146C45.2425 35.9804 44.9589 36.8153 44.4896 37.5466C44.0203 38.2779 43.3794 38.8834 42.6227 39.3106C42.7161 40.0336 42.6604 40.768 42.4588 41.4686C42.2573 42.1692 41.9143 42.821 41.451 43.3838C40.9877 43.9467 40.4139 44.4085 39.7651 44.7409C39.1162 45.0733 38.4062 45.2691 37.6787 45.3164C36.9512 45.3636 36.2218 45.2611 35.5355 45.0154C34.8492 44.7696 34.2205 44.3858 33.6883 43.8876C33.1562 43.3894 32.7318 42.7873 32.4414 42.1187C32.151 41.45 32.0008 40.7289 32 39.9999V22.6666Z" stroke="#9333EA" stroke-width="2.66667" stroke-linecap="round" stroke-linejoin="round"/>
<path d="M36 33.3333C34.8806 32.9395 33.9031 32.2227 33.1911 31.2733C32.4791 30.324 32.0646 29.1849 32 28C31.9354 29.1849 31.5209 30.324 30.8089 31.2733C30.0969 32.2227 29.1194 32.9395 28 33.3333" stroke="#9333EA" stroke-width="2.66667" stroke-linecap="round" stroke-linejoin="round"/>
<path d="M39.4653 24.6668C39.788 24.1076 39.9706 23.4786 39.9973 22.8335" stroke="#9333EA" stroke-width="2.66667" stroke-linecap="round" stroke-linejoin="round"/>
<path d="M24.004 22.8335C24.0304 23.4785 24.2125 24.1075 24.5347 24.6668" stroke="#9333EA" stroke-width="2.66667" stroke-linecap="round" stroke-linejoin="round"/>
<path d="M20.636 30.528C20.8799 30.3293 21.1409 30.1527 21.416 30" stroke="#9333EA" stroke-width="2.66667" stroke-linecap="round" stroke-linejoin="round"/>
<path d="M42.584 30C42.859 30.1527 43.1201 30.3293 43.364 30.528" stroke="#9333EA" stroke-width="2.66667" stroke-linecap="round" stroke-linejoin="round"/>
<path d="M24 40C23.0811 40.0004 22.1777 39.7634 21.3773 39.312" stroke="#9333EA" stroke-width="2.66667" stroke-linecap="round" stroke-linejoin="round"/>
<path d="M42.6227 39.312C41.8223 39.7634 40.9189 40.0004 40 40" stroke="#9333EA" stroke-width="2.66667" stroke-linecap="round" stroke-linejoin="round"/>
</svg>
