<svg width="56" height="56" viewBox="0 0 56 56" fill="none" xmlns="http://www.w3.org/2000/svg">
<rect width="56" height="56" rx="16" fill="#0DA2E7" fill-opacity="0.1"/>
<path d="M32.6667 38.5V36.1667C32.6667 34.929 32.175 33.742 31.2998 32.8668C30.4247 31.9917 29.2377 31.5 28 31.5H21C19.7623 31.5 18.5753 31.9917 17.7002 32.8668C16.825 33.742 16.3333 34.929 16.3333 36.1667V38.5" stroke="#0DA2E7" stroke-width="2.33333" stroke-linecap="round" stroke-linejoin="round"/>
<path d="M24.5 26.8333C27.0773 26.8333 29.1667 24.744 29.1667 22.1667C29.1667 19.5893 27.0773 17.5 24.5 17.5C21.9227 17.5 19.8333 19.5893 19.8333 22.1667C19.8333 24.744 21.9227 26.8333 24.5 26.8333Z" stroke="#0DA2E7" stroke-width="2.33333" stroke-linecap="round" stroke-linejoin="round"/>
<path d="M39.6667 38.5002V36.1669C39.6659 35.1329 39.3218 34.1284 38.6883 33.3112C38.0548 32.494 37.1678 31.9104 36.1667 31.6519" stroke="#0DA2E7" stroke-width="2.33333" stroke-linecap="round" stroke-linejoin="round"/>
<path d="M32.6667 17.6519C33.6705 17.9089 34.5602 18.4927 35.1956 19.3112C35.831 20.1298 36.1758 21.1365 36.1758 22.1727C36.1758 23.2089 35.831 24.2156 35.1956 25.0342C34.5602 25.8527 33.6705 26.4365 32.6667 26.6935" stroke="#0DA2E7" stroke-width="2.33333" stroke-linecap="round" stroke-linejoin="round"/>
</svg>
