<svg width="56" height="56" viewBox="0 0 56 56" fill="none" xmlns="http://www.w3.org/2000/svg">
<rect width="56" height="56" rx="16" fill="#E7F9ED"/>
<path d="M32.0565 29.0386L33.824 38.9856C33.8438 39.1027 33.8273 39.2231 33.7768 39.3306C33.7264 39.4382 33.6443 39.5277 33.5415 39.5873C33.4388 39.647 33.3203 39.6738 33.2019 39.6642C33.0835 39.6547 32.9708 39.6092 32.879 39.5339L28.7023 36.3991C28.5007 36.2484 28.2557 36.167 28.004 36.167C27.7524 36.167 27.5074 36.2484 27.3058 36.3991L23.1221 39.5327C23.0303 39.6079 22.9178 39.6533 22.7995 39.6629C22.6813 39.6724 22.5629 39.6457 22.4602 39.5863C22.3576 39.5268 22.2754 39.4375 22.2249 39.3301C22.1743 39.2228 22.1576 39.1026 22.1771 38.9856L23.9435 29.0386" stroke="#22C35D" stroke-width="2.33333" stroke-linecap="round" stroke-linejoin="round"/>
<path d="M28 30.3335C31.866 30.3335 35 27.1995 35 23.3335C35 19.4675 31.866 16.3335 28 16.3335C24.134 16.3335 21 19.4675 21 23.3335C21 27.1995 24.134 30.3335 28 30.3335Z" stroke="#22C35D" stroke-width="2.33333" stroke-linecap="round" stroke-linejoin="round"/>
</svg>
