<svg width="56" height="56" viewBox="0 0 56 56" fill="none" xmlns="http://www.w3.org/2000/svg">
<rect width="56" height="56" rx="16" fill="#E7F9F5"/>
<path d="M37.3334 25.6668C37.3334 31.492 30.8712 37.5587 28.7012 39.4323C28.499 39.5843 28.253 39.6665 28 39.6665C27.7471 39.6665 27.501 39.5843 27.2989 39.4323C25.1289 37.5587 18.6667 31.492 18.6667 25.6668C18.6667 23.1915 19.65 20.8175 21.4004 19.0672C23.1507 17.3168 25.5247 16.3335 28 16.3335C30.4754 16.3335 32.8493 17.3168 34.5997 19.0672C36.35 20.8175 37.3334 23.1915 37.3334 25.6668Z" stroke="#1ABC9C" stroke-width="2.33333" stroke-linecap="round" stroke-linejoin="round"/>
<path d="M28 29.1665C29.933 29.1665 31.5 27.5995 31.5 25.6665C31.5 23.7335 29.933 22.1665 28 22.1665C26.067 22.1665 24.5 23.7335 24.5 25.6665C24.5 27.5995 26.067 29.1665 28 29.1665Z" stroke="#1ABC9C" stroke-width="2.33333" stroke-linecap="round" stroke-linejoin="round"/>
</svg>
