<svg width="12" height="12" viewBox="0 0 12 12" fill="none" xmlns="http://www.w3.org/2000/svg">
<g clip-path="url(#clip0_1_742)">
<path d="M10.9005 4.99999C11.1289 6.12064 10.9661 7.28571 10.4394 8.30089C9.91274 9.31608 9.05395 10.12 8.00626 10.5787C6.95857 11.0373 5.78532 11.1229 4.68215 10.8212C3.57899 10.5195 2.6126 9.84869 1.94414 8.92071C1.27568 7.99272 0.945565 6.86361 1.00884 5.72169C1.07211 4.57976 1.52494 3.49404 2.29183 2.64558C3.05872 1.79712 4.09329 1.23721 5.22304 1.05922C6.35278 0.881233 7.5094 1.09592 8.5 1.66749" stroke="white" stroke-linecap="round" stroke-linejoin="round"/>
<path d="M4.5 5.5L6 7L11 2" stroke="white" stroke-linecap="round" stroke-linejoin="round"/>
</g>
<defs>
<clipPath id="clip0_1_742">
<rect width="12" height="12" fill="white"/>
</clipPath>
</defs>
</svg>
