<svg width="64" height="64" viewBox="0 0 64 64" fill="none" xmlns="http://www.w3.org/2000/svg">
<rect width="64" height="64" rx="16" fill="#E7F9ED"/>
<path d="M38.6667 29.3332C39.6 28.3998 40.92 29.3332 42 29.3332C42.8841 29.3332 43.7319 28.982 44.357 28.3569C44.9821 27.7317 45.3333 26.8839 45.3333 25.9998C45.3333 25.1158 44.9821 24.2679 44.357 23.6428C43.7319 23.0177 42.8841 22.6665 42 22.6665C41.8232 22.6665 41.6536 22.5963 41.5286 22.4712C41.4036 22.3462 41.3333 22.1766 41.3333 21.9998C41.3333 21.1158 40.9821 20.2679 40.357 19.6428C39.7319 19.0177 38.8841 18.6665 38 18.6665C37.116 18.6665 36.2681 19.0177 35.643 19.6428C35.0179 20.2679 34.6667 21.1158 34.6667 21.9998C34.6667 23.0798 35.6 24.3998 34.6667 25.3332L25.3333 34.6665C24.4 35.5998 23.08 34.6665 22 34.6665C21.116 34.6665 20.2681 35.0177 19.643 35.6428C19.0179 36.2679 18.6667 37.1158 18.6667 37.9998C18.6667 38.8839 19.0179 39.7317 19.643 40.3569C20.2681 40.982 21.116 41.3332 22 41.3332C22.3733 41.3332 22.6667 41.6265 22.6667 41.9998C22.6667 42.8839 23.0179 43.7317 23.643 44.3569C24.2681 44.982 25.116 45.3332 26 45.3332C26.8841 45.3332 27.7319 44.982 28.357 44.3569C28.9821 43.7317 29.3333 42.8839 29.3333 41.9998C29.3333 40.9198 28.4 39.5998 29.3333 38.6665L38.6667 29.3332Z" stroke="#22C35D" stroke-width="2.66667" stroke-linecap="round" stroke-linejoin="round"/>
</svg>
